<?xml version="1.0" encoding="iso-8859-1"?>
<!-- Generator: Adobe Illustrator 15.1.0, SVG Export Plug-In . SVG Version: 6.00 Build 0)  -->
<!DOCTYPE svg PUBLIC "-//W3C//DTD SVG 1.1//EN" "http://www.w3.org/Graphics/SVG/1.1/DTD/svg11.dtd">
<svg version="1.1" id="Layer_1" xmlns="http://www.w3.org/2000/svg" xmlns:xlink="http://www.w3.org/1999/xlink" x="0px" y="0px"
	 width="200px" height="200px" viewBox="0 0 200 200" style="enable-background:new 0 0 200 200;" xml:space="preserve">
<path style="fill:#FFFFFF;" d="M197.985,91.57V0h-34.939v24.547c-17.253-14.532-39.521-23.3-63.844-23.3
	C44.413,1.247,0,45.661,0,100.449c0,54.782,44.413,99.197,99.202,99.197c51.343,0,93.581-39.012,98.683-89.007h0.101v-1.313
	c0.261-2.928,0.417-5.885,0.417-8.878C198.402,97.452,198.246,94.498,197.985,91.57 M100.122,181.11
	c-42.169,0-73.501-37.516-73.501-75.88c0-38.36,31.098-69.46,69.459-69.46c38.359,0,69.461,31.1,69.461,69.46
	c0,1.828,0.102,3.838,0.102,5.631c27.993,0,28.81-0.131,32.18-0.131C182.418,169.082,129.484,181.11,100.122,181.11"/>
<path style="fill:#FFFFFF;" d="M83.058,43.2v68.01h34.003V43.872c0,0-9.324-2.675-18.059-2.675
	C90.751,41.196,83.058,43.2,83.058,43.2"/>
</svg>
